<svg width="425" height="326" viewBox="0 0 425 326" fill="none" xmlns="http://www.w3.org/2000/svg">
<path d="M97.8601 225.611L130.765 173.953L57.0733 127.174L19.017 186.918L79.9693 225.611H97.8601Z" fill="#F0F0F0"/>
<path d="M144.489 241.726H62.9826V225.347H144.489V241.726ZM64.0411 240.669H143.431V226.404H64.0411V240.669Z" fill="#3F3D56"/>
<path d="M134.433 238.82C137.356 238.82 139.726 236.455 139.726 233.536C139.726 230.618 137.356 228.253 134.433 228.253C131.51 228.253 129.141 230.618 129.141 233.536C129.141 236.455 131.51 238.82 134.433 238.82Z" fill="#02211B"/>
<path d="M119.614 238.82C122.537 238.82 124.907 236.455 124.907 233.536C124.907 230.618 122.537 228.253 119.614 228.253C116.691 228.253 114.321 230.618 114.321 233.536C114.321 236.455 116.691 238.82 119.614 238.82Z" fill="#02211B"/>
<path d="M104.795 238.82C107.718 238.82 110.087 236.455 110.087 233.536C110.087 230.618 107.718 228.253 104.795 228.253C101.871 228.253 99.5019 230.618 99.5019 233.536C99.5019 236.455 101.871 238.82 104.795 238.82Z" fill="#02211B"/>
<path d="M89.9751 238.82C92.8981 238.82 95.2677 236.455 95.2677 233.536C95.2677 230.618 92.8981 228.253 89.9751 228.253C87.052 228.253 84.6824 230.618 84.6824 233.536C84.6824 236.455 87.052 238.82 89.9751 238.82Z" fill="#02211B"/>
<path d="M75.1557 238.82C78.0787 238.82 80.4483 236.455 80.4483 233.536C80.4483 230.618 78.0787 228.253 75.1557 228.253C72.2326 228.253 69.863 230.618 69.863 233.536C69.863 236.455 72.2326 238.82 75.1557 238.82Z" fill="#02211B"/>
<path d="M241.345 59.705V19.5494H261.457V0H163.014V98.2755H247.167V88.6669C247.167 86.8758 247.52 85.1022 248.207 83.4474C248.894 81.7926 249.9 80.289 251.169 79.0224C252.437 77.7559 253.943 76.7512 255.601 76.0658C257.259 75.3803 259.035 75.0276 260.83 75.0276H261.457V59.705H241.345Z" fill="#F0F0F0"/>
<path d="M350.374 253.614H284.745V267.352H350.374V253.614Z" fill="#02211B"/>
<path d="M364.664 185.984H268.337V198.665H364.664V185.984Z" fill="#F0F0F0"/>
<path d="M411.768 324.943H0V326H411.768V324.943Z" fill="#3F3D56"/>
<path d="M381.169 326H260.83C257.067 325.996 253.46 324.502 250.799 321.846C248.139 319.19 246.642 315.588 246.638 311.832V88.667C246.642 84.9107 248.138 81.3096 250.799 78.6536C253.46 75.9975 257.067 74.5035 260.83 74.4992H381.169C384.932 74.5035 388.539 75.9975 391.2 78.6536C393.86 81.3096 395.357 84.9107 395.361 88.667V311.832C395.357 315.588 393.86 319.19 391.2 321.846C388.539 324.502 384.932 325.996 381.169 326ZM260.83 75.5559C257.348 75.5599 254.009 76.9425 251.547 79.4004C249.085 81.8584 247.7 85.1909 247.696 88.667V311.832C247.7 315.308 249.085 318.641 251.547 321.099C254.009 323.557 257.348 324.939 260.83 324.943H381.169C384.651 324.939 387.989 323.557 390.452 321.099C392.914 318.641 394.299 315.308 394.303 311.832V88.667C394.299 85.1909 392.914 81.8584 390.452 79.4004C387.989 76.9425 384.651 75.5599 381.169 75.5559H260.83Z" fill="#3F3D56"/>
<path d="M306.709 85.0665C306.081 85.0665 305.467 84.8805 304.945 84.5322C304.423 84.1838 304.016 83.6887 303.775 83.1095C303.535 82.5302 303.472 81.8928 303.595 81.2778C303.717 80.6628 304.02 80.098 304.464 79.6546C304.908 79.2113 305.474 78.9093 306.09 78.787C306.706 78.6647 307.344 78.7275 307.924 78.9674C308.505 79.2073 309.001 79.6137 309.35 80.135C309.699 80.6563 309.885 81.2693 309.885 81.8963C309.884 82.7368 309.549 83.5426 308.954 84.1369C308.358 84.7312 307.551 85.0655 306.709 85.0665ZM306.709 79.7828C306.29 79.7828 305.881 79.9068 305.533 80.139C305.185 80.3712 304.914 80.7013 304.753 81.0875C304.593 81.4737 304.551 81.8986 304.633 82.3086C304.715 82.7186 304.916 83.0951 305.212 83.3907C305.508 83.6863 305.886 83.8876 306.296 83.9691C306.707 84.0507 307.133 84.0088 307.519 83.8489C307.906 83.6889 308.237 83.418 308.469 83.0704C308.702 82.7229 308.826 82.3143 308.826 81.8963C308.826 81.3359 308.602 80.7987 308.206 80.4025C307.809 80.0063 307.271 79.7834 306.709 79.7828Z" fill="#3F3D56"/>
<path d="M337.936 81.3679H314.648V82.4246H337.936V81.3679Z" fill="#3F3D56"/>
<path d="M385.834 89.8217V132.091C374.605 132.09 363.836 127.637 355.895 119.71C347.955 111.783 343.494 101.032 343.493 89.8217H385.834Z" fill="#02211B"/>
<path d="M386.364 311.734H255.635V89.2934H386.364V311.734ZM256.694 310.677H385.305V90.3501H256.694V310.677Z" fill="#3F3D56"/>
<path opacity="0.1" d="M355.137 129.449C363.029 129.449 369.427 123.062 369.427 115.183C369.427 107.304 363.029 100.917 355.137 100.917C347.245 100.917 340.847 107.304 340.847 115.183C340.847 123.062 347.245 129.449 355.137 129.449Z" fill="black"/>
<path d="M353.02 131.034C360.912 131.034 367.31 124.647 367.31 116.768C367.31 108.889 360.912 102.502 353.02 102.502C345.128 102.502 338.73 108.889 338.73 116.768C338.73 124.647 345.128 131.034 353.02 131.034Z" fill="#02211B"/>
<path d="M281.569 98.2755H261.457V105.673H281.569V98.2755Z" fill="#3F3D56"/>
<path d="M292.684 168.548H272.572V175.945H292.684V168.548Z" fill="#3F3D56"/>
<path d="M369.956 196.023H272.572V182.285H369.956V196.023ZM273.63 194.966H368.898V183.342H273.63V194.966Z" fill="#3F3D56"/>
<path d="M364.664 226.139H268.337V238.82H364.664V226.139Z" fill="#F0F0F0"/>
<path d="M292.684 208.703H272.572V216.1H292.684V208.703Z" fill="#3F3D56"/>
<path d="M369.956 236.178H272.572V222.441H369.956V236.178ZM273.63 235.122H368.898V223.498H273.63V235.122Z" fill="#3F3D56"/>
<path d="M354.608 264.182H287.92V249.387H354.608V264.182ZM288.979 263.125H353.549V250.444H288.979V263.125Z" fill="#3F3D56"/>
<path d="M367.31 190.739C367.31 191.827 366.974 192.888 366.347 193.778C365.72 194.668 364.834 195.343 363.808 195.711C362.783 196.079 361.669 196.122 360.618 195.835C359.567 195.547 358.631 194.943 357.937 194.105L357.932 194.099C357.426 193.487 357.064 192.768 356.875 191.997C356.686 191.226 356.673 190.422 356.837 189.645C357.002 188.868 357.34 188.138 357.826 187.51C358.312 186.881 358.934 186.37 359.645 186.015C360.356 185.659 361.138 185.468 361.934 185.456C362.729 185.444 363.517 185.611 364.239 185.944C364.96 186.278 365.598 186.77 366.103 187.383C366.608 187.996 366.968 188.715 367.157 189.487C367.157 189.488 367.157 189.488 367.157 189.489C367.157 189.49 367.158 189.49 367.158 189.491C367.159 189.491 367.159 189.491 367.16 189.492C367.161 189.492 367.161 189.492 367.162 189.492C367.26 189.901 367.309 190.319 367.31 190.739Z" fill="#02211B"/>
<path opacity="0.1" d="M367.31 190.739C367.31 191.827 366.974 192.888 366.347 193.778C365.72 194.668 364.834 195.343 363.808 195.711C362.783 196.079 361.669 196.122 360.618 195.835C359.567 195.547 358.631 194.943 357.937 194.105L357.932 194.099C357.834 193.691 357.784 193.272 357.783 192.853C357.783 191.765 358.12 190.704 358.746 189.814C359.373 188.924 360.26 188.249 361.285 187.881C362.31 187.513 363.424 187.469 364.475 187.757C365.526 188.044 366.462 188.648 367.157 189.487C367.157 189.488 367.157 189.488 367.157 189.489C367.157 189.49 367.158 189.49 367.158 189.491C367.159 189.491 367.159 189.491 367.16 189.492C367.16 189.492 367.161 189.492 367.162 189.492C367.26 189.901 367.309 190.319 367.31 190.739Z" fill="black"/>
<path d="M364.134 199.193C367.058 199.193 369.427 196.827 369.427 193.909C369.427 190.991 367.058 188.626 364.134 188.626C361.211 188.626 358.842 190.991 358.842 193.909C358.842 196.827 361.211 199.193 364.134 199.193Z" fill="#02211B"/>
<path d="M367.31 230.895C367.31 231.982 366.974 233.044 366.347 233.933C365.72 234.823 364.834 235.498 363.808 235.866C362.783 236.235 361.669 236.278 360.618 235.99C359.567 235.703 358.631 235.099 357.937 234.26L357.932 234.255C357.426 233.642 357.064 232.924 356.875 232.153C356.686 231.381 356.673 230.578 356.837 229.801C357.002 229.024 357.34 228.294 357.826 227.666C358.312 227.037 358.934 226.526 359.645 226.17C360.356 225.815 361.138 225.624 361.934 225.612C362.729 225.599 363.517 225.766 364.239 226.1C364.96 226.434 365.598 226.925 366.103 227.539C366.608 228.152 366.968 228.871 367.157 229.642C367.157 229.643 367.157 229.644 367.157 229.644C367.157 229.645 367.158 229.646 367.158 229.646C367.159 229.647 367.159 229.647 367.16 229.647C367.161 229.648 367.161 229.648 367.162 229.648C367.26 230.056 367.309 230.475 367.31 230.895Z" fill="#02211B"/>
<path opacity="0.1" d="M367.31 230.895C367.31 231.982 366.974 233.044 366.347 233.933C365.72 234.823 364.834 235.498 363.808 235.866C362.783 236.235 361.669 236.278 360.618 235.99C359.567 235.703 358.631 235.099 357.937 234.26L357.932 234.255C357.834 233.847 357.784 233.428 357.783 233.008C357.783 231.92 358.12 230.859 358.746 229.969C359.373 229.08 360.26 228.404 361.285 228.036C362.31 227.668 363.424 227.625 364.475 227.912C365.526 228.2 366.462 228.804 367.157 229.642C367.157 229.643 367.157 229.644 367.157 229.644C367.157 229.645 367.158 229.646 367.158 229.646C367.159 229.647 367.159 229.647 367.16 229.647C367.16 229.648 367.161 229.648 367.162 229.648C367.26 230.056 367.309 230.475 367.31 230.895Z" fill="black"/>
<path d="M364.134 239.348C367.058 239.348 369.427 236.983 369.427 234.065C369.427 231.147 367.058 228.781 364.134 228.781C361.211 228.781 358.842 231.147 358.842 234.065C358.842 236.983 361.211 239.348 364.134 239.348Z" fill="#02211B"/>
<path d="M275.218 25.3614H247.696V52.8363H275.218V25.3614Z" fill="#F0F0F0"/>
<path d="M355.137 45.4392C353.881 45.4392 352.653 45.0674 351.608 44.3707C350.564 43.674 349.75 42.6838 349.269 41.5252C348.789 40.3667 348.663 39.0918 348.908 37.8619C349.153 36.632 349.758 35.5023 350.646 34.6156C351.534 33.7288 352.666 33.125 353.898 32.8803C355.13 32.6357 356.407 32.7613 357.567 33.2411C358.728 33.721 359.72 34.5337 360.418 35.5764C361.116 36.619 361.488 37.8449 361.488 39.0989C361.486 40.7799 360.817 42.3915 359.626 43.5801C358.435 44.7687 356.821 45.4374 355.137 45.4392ZM355.137 33.8152C354.09 33.8152 353.067 34.1251 352.197 34.7057C351.326 35.2863 350.648 36.1115 350.247 37.0769C349.847 38.0424 349.742 39.1047 349.946 40.1297C350.15 41.1546 350.654 42.096 351.395 42.835C352.135 43.5739 353.078 44.0771 354.104 44.281C355.131 44.4848 356.195 44.3802 357.162 43.9803C358.129 43.5804 358.956 42.9032 359.538 42.0343C360.119 41.1654 360.43 40.1439 360.43 39.0989C360.428 37.6981 359.87 36.3551 358.878 35.3645C357.885 34.374 356.54 33.8168 355.137 33.8152Z" fill="#3F3D56"/>
<path d="M215.411 133.676H201.65V119.938H215.411V133.676ZM202.709 132.619H214.352V120.995H202.709V132.619Z" fill="#3F3D56"/>
<path d="M425 236.178H411.239V222.441H425V236.178ZM412.298 235.122H423.941V223.498H412.298V235.122Z" fill="#3F3D56"/>
<path d="M153.488 144.067L155.85 145.337L163.885 149.66L176.858 156.637L184.417 142.635C185.129 141.319 185.575 139.876 185.727 138.389C185.88 136.901 185.737 135.398 185.308 133.966C184.878 132.533 184.169 131.199 183.222 130.041C182.275 128.882 181.109 127.921 179.79 127.213C176.97 125.693 173.74 125.106 170.565 125.536C167.39 125.966 164.434 127.391 162.122 129.606L162.118 129.61C160.981 130.7 160.021 131.961 159.273 133.348L153.488 144.067Z" fill="#2F2E41"/>
<path d="M188.895 286.868L187.31 304.272L181.366 305.063L177.404 285.285L188.895 286.868Z" fill="#FFB8B8"/>
<path d="M179.782 305.063C179.782 305.063 187.31 301.107 188.895 304.272C188.895 304.272 187.706 313.765 192.461 314.952C197.216 316.138 199.197 324.445 192.461 325.236C185.725 326.027 181.367 323.654 178.989 323.654C176.612 323.654 178.989 315.347 178.989 315.347L179.782 305.063Z" fill="#2F2E41"/>
<path d="M140.952 286.868L142.537 304.272L148.48 305.063L152.442 285.285L140.952 286.868Z" fill="#FFB8B8"/>
<path d="M150.065 305.063C150.065 305.063 142.537 301.107 140.952 304.272C140.952 304.272 142.14 313.765 137.386 314.952C132.631 316.138 130.65 324.445 137.386 325.236C144.122 326.027 148.48 323.654 150.857 323.654C153.235 323.654 150.857 315.347 150.857 315.347L150.065 305.063Z" fill="#2F2E41"/>
<path d="M173.442 147.239C179.132 147.239 183.744 142.635 183.744 136.955C183.744 131.275 179.132 126.671 173.442 126.671C167.753 126.671 163.14 131.275 163.14 136.955C163.14 142.635 167.753 147.239 173.442 147.239Z" fill="#FFB8B8"/>
<path d="M140.556 157.128L148.876 170.181L158.782 169.39L175.027 170.577C175.027 170.577 176.56 167.515 177.812 164.537C178.498 163.049 179.025 161.494 179.385 159.897C179.782 157.128 174.235 154.359 174.235 154.359C174.235 154.359 174.017 154.32 173.652 154.232C173.169 154.118 172.424 153.928 171.608 153.651C169.765 153.026 167.55 151.966 167.103 150.404C166.31 147.635 172.253 143.679 172.253 143.679L165.121 136.955C165.121 136.955 158.786 145.74 151.091 147.742C150.645 147.859 150.193 147.952 149.736 148.018C149.712 148.022 149.692 148.026 149.669 148.03C141.348 149.217 140.556 157.128 140.556 157.128Z" fill="#FFB8B8"/>
<path d="M144.914 153.568L140.556 157.128C140.556 157.128 136.99 174.136 138.178 178.883C139.367 183.63 137.782 187.981 137.782 188.772C137.782 189.563 134.216 219.229 134.216 219.229C134.216 219.229 127.084 235.051 134.612 233.469C142.14 231.886 139.367 216.065 139.367 216.065L148.48 188.376V165.039L144.914 153.568Z" fill="#FFB8B8"/>
<path d="M176.216 156.732L179.385 159.106L180.97 192.332L192.857 220.811C192.857 220.811 201.574 234.655 196.027 235.051C190.48 235.446 186.914 220.811 186.914 220.811L176.216 193.518L174.631 167.017L176.216 156.732Z" fill="#FFB8B8"/>
<path d="M156.405 159.106C156.405 159.106 164.329 164.643 177.008 162.666C177.008 162.666 180.574 169.785 178.593 173.741C176.612 177.696 180.97 187.19 181.763 188.376C182.555 189.563 191.668 214.087 194.838 240.588C198.008 267.09 206.725 285.285 199.197 287.659C191.668 290.032 176.216 292.801 174.631 290.428C173.046 288.054 170.669 229.118 170.669 229.118L166.31 251.664C166.31 251.664 172.253 290.032 167.895 290.823C163.536 291.614 136.197 289.241 136.99 284.494C137.782 279.748 145.706 254.828 145.706 254.828C145.706 254.828 145.31 204.989 153.235 195.496C153.235 195.496 156.404 190.354 152.046 183.63C147.688 176.905 148.084 166.225 148.084 166.225C148.084 166.225 151.254 166.225 156.405 159.106Z" fill="#2F2E41"/>
<path d="M149.736 148.018L156.405 162.666L157.989 161.875L151.091 147.741L149.736 148.018Z" fill="#2F2E41"/>
<path d="M171.608 153.651L176.612 164.643L177.812 164.537L177.404 162.666L173.652 154.232C173.169 154.118 172.424 153.928 171.608 153.651Z" fill="#2F2E41"/>
<path d="M155.85 145.337C156.231 146.56 156.965 147.644 157.961 148.453C158.956 149.262 160.168 149.76 161.446 149.884C162.724 150.008 164.009 149.753 165.142 149.151C166.276 148.549 167.205 147.627 167.816 146.5C162.804 139.957 167.103 135.847 175.245 132.738C175.858 131.602 176.119 130.309 175.994 129.024C175.869 127.74 175.364 126.521 174.544 125.524C172.299 125.237 170.019 125.455 167.87 126.161C165.721 126.867 163.757 128.044 162.122 129.606L162.118 129.61L156.333 140.321C155.921 141.082 155.666 141.919 155.583 142.78C155.5 143.641 155.591 144.511 155.85 145.337Z" fill="#2F2E41"/>
<path d="M167.301 140.515C168.067 140.515 168.687 139.452 168.687 138.142C168.687 136.831 168.067 135.768 167.301 135.768C166.535 135.768 165.914 136.831 165.914 138.142C165.914 139.452 166.535 140.515 167.301 140.515Z" fill="#FFB8B8"/>
<path d="M171.433 134.269L183.344 139.657L185.527 134.847C185.151 133.089 184.363 131.445 183.229 130.049L175.031 126.342L171.433 134.269Z" fill="#2F2E41"/>
<path d="M200.062 240.405C202.985 240.405 205.355 238.04 205.355 235.122C205.355 232.203 202.985 229.838 200.062 229.838C197.139 229.838 194.77 232.203 194.77 235.122C194.77 238.04 197.139 240.405 200.062 240.405Z" fill="#02211B"/>
<path d="M30.1451 271.815C32.0554 271.815 33.6041 270.269 33.6041 268.362C33.6041 266.454 32.0554 264.908 30.1451 264.908C28.2348 264.908 26.6862 266.454 26.6862 268.362C26.6862 270.269 28.2348 271.815 30.1451 271.815Z" fill="#FF6584"/>
<path d="M47.6207 286.358H46.5622V325.674H47.6207V286.358Z" fill="#3F3D56"/>
<path d="M47.0915 291.918C50.1674 291.918 52.6609 289.429 52.6609 286.358C52.6609 283.288 50.1674 280.798 47.0915 280.798C44.0157 280.798 41.5222 283.288 41.5222 286.358C41.5222 289.429 44.0157 291.918 47.0915 291.918Z" fill="#3F3D56"/>
<path d="M47.0915 310.59C47.0915 310.59 46.2959 293.507 29.9856 295.492L47.0915 310.59Z" fill="#3F3D56"/>
</svg>
