<svg width="412" height="287" viewBox="0 0 412 287" fill="none" xmlns="http://www.w3.org/2000/svg">
<g clip-path="url(#clip0)">
<path d="M82.0883 287C127.424 287 164.177 284.205 164.177 280.758C164.177 277.31 127.424 274.516 82.0883 274.516C36.7522 274.516 0 277.31 0 280.758C0 284.205 36.7522 287 82.0883 287Z" fill="#E6E6E6"/>
<path d="M62.7468 63.6803C77.0327 57.5966 94.8259 61.4511 112.203 64.1263C112.365 60.8867 114.325 56.9438 112.271 54.6836C109.777 51.9377 110.007 49.0525 111.508 46.1507C115.346 38.7303 109.847 30.8346 104.294 24.2694C103.043 22.793 101.461 21.633 99.6776 20.8835C97.8942 20.1341 95.9594 19.8164 94.0303 19.9562L83.7446 20.6918C81.2417 20.8708 78.8531 21.8109 76.8984 23.3862C74.9436 24.9615 73.5161 27.097 72.8067 29.5069C70.3506 32.8512 69.0361 36.1863 69.8637 39.504C66.185 42.021 65.5669 45.0594 67.22 48.4846C68.6218 50.6412 68.6068 52.7405 67.1563 54.7817C65.2512 57.384 63.7921 60.2857 62.8388 63.3678L62.7468 63.6803Z" fill="#2F2E41"/>
<path d="M402.237 248.107H111.074C108.485 248.107 106.002 247.077 104.171 245.244C102.34 243.411 101.312 240.925 101.312 238.332C206.858 226.051 310.421 226.051 412 238.332C412 240.925 410.971 243.411 409.141 245.244C407.31 247.077 404.826 248.107 402.237 248.107Z" fill="#2F2E41"/>
<path d="M412 238.907L101.312 238.332L137.319 177.671L137.492 177.384V43.6933C137.491 42.0706 137.811 40.4637 138.431 38.9645C139.051 37.4653 139.96 36.103 141.106 34.9556C142.252 33.8082 143.613 32.898 145.11 32.2771C146.607 31.6562 148.212 31.3367 149.833 31.3368H361.756C363.377 31.3367 364.981 31.6562 366.479 32.2771C367.976 32.898 369.337 33.8082 370.483 34.9556C371.629 36.103 372.538 37.4653 373.158 38.9645C373.778 40.4637 374.097 42.0706 374.097 43.6933V178.303L412 238.907Z" fill="#3F3D56"/>
<path d="M149.551 39.9616C148.486 39.9628 147.464 40.3872 146.71 41.1418C145.957 41.8963 145.533 42.9194 145.531 43.9865V165.884C145.533 166.951 145.957 167.974 146.71 168.728C147.464 169.483 148.486 169.907 149.551 169.909H363.76C364.826 169.907 365.848 169.483 366.601 168.728C367.355 167.974 367.779 166.951 367.78 165.884V43.9865C367.779 42.9194 367.355 41.8964 366.601 41.1418C365.848 40.3873 364.826 39.9628 363.76 39.9616H149.551Z" fill="white"/>
<path d="M150.449 186.008C150.12 186.009 149.797 186.104 149.52 186.282C149.243 186.459 149.022 186.713 148.884 187.012L137.789 211.162C137.668 211.425 137.615 211.714 137.635 212.002C137.655 212.291 137.747 212.57 137.903 212.813C138.059 213.057 138.274 213.257 138.527 213.396C138.78 213.535 139.065 213.608 139.354 213.608H372.678C372.971 213.608 373.26 213.533 373.517 213.389C373.773 213.246 373.989 213.04 374.143 212.79C374.298 212.539 374.385 212.254 374.399 211.96C374.412 211.666 374.35 211.374 374.218 211.111L362.158 186.962C362.016 186.675 361.796 186.433 361.524 186.265C361.252 186.096 360.938 186.007 360.618 186.008H150.449Z" fill="#2F2E41"/>
<path d="M255.794 37.9491C257.222 37.9491 258.379 36.7907 258.379 35.3617C258.379 33.9327 257.222 32.7743 255.794 32.7743C254.367 32.7743 253.21 33.9327 253.21 35.3617C253.21 36.7907 254.367 37.9491 255.794 37.9491Z" fill="white"/>
<path d="M232.86 218.208C232.482 218.208 232.114 218.333 231.813 218.564C231.512 218.795 231.296 219.118 231.197 219.484L228.414 229.834C228.345 230.089 228.336 230.357 228.387 230.617C228.439 230.877 228.549 231.121 228.71 231.331C228.871 231.542 229.078 231.712 229.315 231.829C229.552 231.946 229.813 232.007 230.077 232.007H283.006C283.28 232.007 283.551 231.941 283.795 231.815C284.039 231.689 284.25 231.507 284.409 231.283C284.568 231.059 284.672 230.8 284.711 230.528C284.75 230.255 284.723 229.978 284.633 229.718L281.055 219.368C280.938 219.029 280.718 218.736 280.426 218.528C280.134 218.32 279.785 218.208 279.427 218.208H232.86Z" fill="#2F2E41"/>
<path d="M374.097 175.371V177.671H137.319L137.497 177.384V175.371H374.097Z" fill="#2F2E41"/>
<path d="M367.493 80.4982C389.695 80.4982 407.693 62.478 407.693 40.2491C407.693 18.0201 389.695 0 367.493 0C345.291 0 327.293 18.0201 327.293 40.2491C327.293 62.478 345.291 80.4982 367.493 80.4982Z" fill="#02211B"/>
<path d="M384.147 57.7862H350.839C350.23 57.7856 349.646 57.5431 349.215 57.1119C348.784 56.6807 348.542 56.0961 348.542 55.4863V35.3617C348.542 34.7519 348.784 34.1673 349.215 33.7361C349.646 33.3049 350.23 33.0624 350.839 33.0618H384.147C384.756 33.0624 385.34 33.3049 385.771 33.7361C386.201 34.1673 386.444 34.7519 386.444 35.3617V55.4862C386.444 56.096 386.202 56.6807 385.771 57.1119C385.34 57.5431 384.756 57.7856 384.147 57.7862ZM350.839 35.3617V55.4863H384.149L384.147 35.3617L350.839 35.3617Z" fill="white"/>
<path d="M377.83 35.3617H357.156V26.1619C357.156 19.4985 361.503 14.6622 367.493 14.6622C373.483 14.6622 377.83 19.4985 377.83 26.1619L377.83 35.3617ZM359.453 33.0618H375.533V26.1619C375.533 20.7453 372.227 16.9621 367.493 16.9621C362.759 16.9621 359.453 20.7453 359.453 26.1619L359.453 33.0618Z" fill="white"/>
<path d="M367.493 47.1489C368.762 47.1489 369.79 46.1192 369.79 44.849C369.79 43.5788 368.762 42.549 367.493 42.549C366.224 42.549 365.196 43.5788 365.196 44.849C365.196 46.1192 366.224 47.1489 367.493 47.1489Z" fill="white"/>
<path d="M339.43 128.562H173.882C173.069 128.561 172.29 128.238 171.715 127.662C171.14 127.087 170.817 126.307 170.816 125.493V84.3773C170.817 83.5636 171.14 82.7834 171.715 82.208C172.29 81.6325 173.069 81.3088 173.882 81.3079H339.43C340.243 81.3088 341.022 81.6325 341.597 82.208C342.171 82.7834 342.495 83.5636 342.496 84.3773V125.493C342.495 126.307 342.171 127.087 341.597 127.662C341.022 128.238 340.243 128.561 339.43 128.562ZM173.882 82.5357C173.394 82.5362 172.926 82.7304 172.582 83.0757C172.237 83.4209 172.043 83.8891 172.042 84.3773V125.493C172.043 125.981 172.237 126.449 172.582 126.795C172.926 127.14 173.394 127.334 173.882 127.335H339.43C339.918 127.334 340.385 127.14 340.73 126.795C341.075 126.449 341.269 125.981 341.269 125.493V84.3773C341.269 83.8891 341.075 83.4209 340.73 83.0757C340.385 82.7304 339.918 82.5362 339.43 82.5357L173.882 82.5357Z" fill="#E6E6E6"/>
<path d="M199.605 115.861C206.501 115.861 212.093 110.263 212.093 103.358C212.093 96.4521 206.501 90.8542 199.605 90.8542C192.708 90.8542 187.116 96.4521 187.116 103.358C187.116 110.263 192.708 115.861 199.605 115.861Z" fill="#E6E6E6"/>
<path d="M228.446 95.022C228.172 95.0216 227.901 95.0751 227.648 95.1797C227.396 95.2842 227.166 95.4376 226.972 95.6312C226.778 95.8247 226.625 96.0546 226.52 96.3077C226.415 96.5607 226.361 96.8319 226.361 97.1059C226.361 97.3798 226.415 97.6511 226.52 97.9041C226.625 98.1571 226.778 98.387 226.972 98.5806C227.166 98.7741 227.396 98.9275 227.648 99.0321C227.901 99.1366 228.172 99.1902 228.446 99.1898H326.566C327.118 99.1898 327.648 98.9702 328.038 98.5794C328.428 98.1886 328.648 97.6586 328.648 97.1059C328.648 96.5532 328.428 96.0232 328.038 95.6324C327.648 95.2415 327.118 95.022 326.566 95.022H228.446Z" fill="#E6E6E6"/>
<path d="M228.446 107.525C227.894 107.525 227.365 107.745 226.974 108.136C226.584 108.526 226.365 109.056 226.365 109.609C226.365 110.162 226.584 110.692 226.974 111.083C227.365 111.473 227.894 111.693 228.446 111.693H270.667C271.219 111.693 271.749 111.473 272.139 111.083C272.529 110.692 272.749 110.162 272.749 109.609C272.749 109.056 272.529 108.526 272.139 108.136C271.749 107.745 271.219 107.525 270.667 107.525H228.446Z" fill="#E6E6E6"/>
<path d="M136.912 108.368L106.309 124.658L105.922 111.083C115.91 109.414 125.413 106.507 134.2 101.775L137.401 93.8576C137.75 92.9949 138.316 92.2379 139.046 91.6607C139.775 91.0836 140.642 90.7063 141.561 90.5658C142.479 90.4253 143.419 90.5265 144.287 90.8594C145.155 91.1923 145.922 91.7455 146.512 92.4647C147.375 93.5169 147.807 94.8583 147.719 96.2171C147.631 97.576 147.031 98.8507 146.04 99.783L136.912 108.368Z" fill="#FFB8B8"/>
<path d="M62.1367 202.419C61.9135 201.6 61.8661 200.742 61.9976 199.902C62.1292 199.063 62.4368 198.261 62.9001 197.549L69.6226 187.219C71.2127 184.776 73.6525 183.011 76.4687 182.267C79.2849 181.523 82.2766 181.854 84.8635 183.193C82.0382 188.008 82.4321 192.232 85.8393 195.903C80.55 198.489 75.6615 201.825 71.3252 205.81C70.5336 206.35 69.6244 206.694 68.6735 206.811C67.7227 206.928 66.7575 206.816 65.8585 206.485C64.9596 206.153 64.1528 205.611 63.5054 204.904C62.858 204.197 62.3887 203.345 62.1367 202.419Z" fill="#2F2E41"/>
<path d="M138.306 188.913C137.288 190.611 135.852 192.018 134.136 193C132.419 193.982 130.479 194.505 128.501 194.52L83.841 194.859L81.9042 183.611L101.66 177.794L85.0032 164.994L103.21 143.663L136.279 174.522C138.212 176.326 139.468 178.739 139.837 181.358C140.205 183.978 139.665 186.645 138.306 188.913Z" fill="#2F2E41"/>
<path d="M76.8682 265.836H66.409C57.0182 201.387 47.4592 136.757 75.7061 112.635L109.021 118.065L104.759 146.378L86.1653 167.709L76.8682 265.836Z" fill="#2F2E41"/>
<path d="M86.0624 280.435C85.2436 280.659 84.3868 280.706 83.5484 280.575C82.71 280.443 81.9089 280.135 81.1978 279.671L69.8413 278.143C67.401 276.551 65.6382 274.109 64.8951 271.289C64.152 268.469 64.4814 265.474 65.8195 262.884C70.6288 265.712 74.8477 265.318 78.5138 261.906C81.1042 267.143 85.3723 266.824 89.4485 271.236C89.9882 272.028 90.3309 272.938 90.4482 273.89C90.5654 274.842 90.4538 275.809 90.1225 276.709C89.7912 277.609 89.2499 278.417 88.5437 279.065C87.8374 279.713 86.9867 280.183 86.0624 280.435Z" fill="#2F2E41"/>
<path d="M101.66 69.5832L82.2915 64.929C85.5084 58.3362 85.7733 51.0005 84.2284 43.2093L97.3992 42.8214C97.8119 52.51 99.0604 61.5616 101.66 69.5832Z" fill="#FFB8B8"/>
<path d="M106.984 129.743C92.8838 139.362 82.9213 130.072 75.3187 115.737C76.3752 106.966 74.6646 96.4696 71.4966 85.0643C70.0876 80.0337 70.6137 74.6571 72.9708 69.9959C75.3279 65.3347 79.3448 61.7276 84.2284 59.8869L100.886 66.8682C115.03 78.4112 117.814 90.9146 112.507 104.102L106.984 129.743Z" fill="#02211B"/>
<path d="M66.409 79.2794L50.9139 87.4243L78.4177 103.714L82.2447 113.165C82.5001 113.796 82.6245 114.473 82.6104 115.153C82.5962 115.834 82.4438 116.504 82.1624 117.124C81.8809 117.744 81.4764 118.299 80.9734 118.757C80.4705 119.215 79.8796 119.566 79.2369 119.788C78.5063 120.04 77.7273 120.12 76.9609 120.02C76.1944 119.921 75.4614 119.645 74.8193 119.214C74.1771 118.784 73.6431 118.21 73.2593 117.539C72.8754 116.867 72.6521 116.116 72.6067 115.343L72.2197 108.756L37.2626 97.2062C36.0848 96.8171 35.0109 96.1647 34.1223 95.2984C33.2336 94.4322 32.5534 93.3749 32.1333 92.2065C31.521 90.5034 31.4898 88.6451 32.0447 86.9224C32.5996 85.1997 33.7092 83.7098 35.2 82.6858L63.31 63.3776L66.409 79.2794Z" fill="#FFB8B8"/>
<path d="M81.9041 80.8309C75.4417 77.9953 69.5652 81.0756 62.1478 83.5458L60.9857 62.9897C68.3509 59.0594 75.373 57.9997 81.9041 61.0505L81.9041 80.8309Z" fill="#02211B"/>
<path d="M89.6346 53.0036C96.4643 53.0036 102.001 47.4603 102.001 40.6222C102.001 33.7842 96.4643 28.2408 89.6346 28.2408C82.8049 28.2408 77.2683 33.7842 77.2683 40.6222C77.2683 47.4603 82.8049 53.0036 89.6346 53.0036Z" fill="#FFB8B8"/>
<path d="M104.429 39.06C92.185 40.2606 82.8555 38.2558 76.8928 32.5473V27.9501H103.39L104.429 39.06Z" fill="#2F2E41"/>
</g>
<defs>
<clipPath id="clip0">
<rect width="412" height="287" fill="white"/>
</clipPath>
</defs>
</svg>
